HIERARCHY
ROOT ui
{
	 OFFSET 0 0 0
	 CHANNELS 3 XPosition YPosition Z Position
	 EndSite
	 {
	 OFFSET 0 -1 0
	 }
}
ROOT li
{
	 OFFSET 0 0 0
	 CHANNELS 3 XPosition YPosition Z Position
	 EndSite
	 {
	 OFFSET 0 -1 0
	 }
}
ROOT ul
{
	 OFFSET 0 0 0
	 CHANNELS 3 XPosition YPosition Z Position
	 EndSite
	 {
	 OFFSET 0 -1 0
	 }
}
ROOT ll
{
	 OFFSET 0 0 0
	 CHANNELS 3 XPosition YPosition Z Position
	 EndSite
	 {
	 OFFSET 0 -1 0
	 }
}
ROOT tt
{
	 OFFSET 0 0 0
	 CHANNELS 3 XPosition YPosition Z Position
	 EndSite
	 {
	 OFFSET 0 -1 0
	 }
}
ROOT tb
{
	 OFFSET 0 0 0
	 CHANNELS 3 XPosition YPosition Z Position
	 EndSite
	 {
	 OFFSET 0 -1 0
	 }
}
ROOT td
{
	 OFFSET 0 0 0
	 CHANNELS 3 XPosition YPosition Z Position
	 EndSite
	 {
	 OFFSET 0 -1 0
	 }
}
ROOT v
{
	 OFFSET 0 0 0
	 CHANNELS 3 XPosition YPosition Z Position
	 EndSite
	 {
	 OFFSET 0 -1 0
	 }
}
ROOT bn
{
	 OFFSET 0 0 0
	 CHANNELS 3 XPosition YPosition Z Position
	 EndSite
	 {
	 OFFSET 0 -1 0
	 }
}
MOTION
Frames: 16
Frame Time: 0.002
-0.03307315444946289	4.929049909114838E-4	0		0.5981870727539063	-2.702844970703125	0		-0.8673250122070313	0.24373738098144532	0		-0.2668804931640625	-3.142197998046875	0		1.813851806640625	-0.96588232421875	0		3.19766015625	0.08433087921142578	0		4.53056591796875	0.25724029541015625	0		6.00793115234375	0.39485711669921875	0		-0.02539076614379883	5.97812109375	0		
0.05380264663696289	0.006211950778961182	0		0.5942529907226562	-2.687675048828125	0		-0.863490966796875	0.24775376892089843	0		-0.2588866882324219	-3.132234130859375	0		1.822025146484375	-0.9418800048828125	0		3.206907958984375	0.1143433609008789	0		4.54744580078125	0.26415478515625	0		6.00769970703125	0.39506997680664063	0		-0.025730180740356445	5.97821728515625	0		
-0.03348307037353516	6.874610185623169E-4	0		0.5900579833984375	-2.69150048828125	0		-0.8786008911132812	0.25307188415527343	0		-0.22507757568359374	-3.136677001953125	0		1.8551383056640625	-0.9242683715820312	0		3.203451416015625	0.09755575561523437	0		4.54725439453125	0.26434439086914063	0		6.0023798828125	0.38736865234375	0		-0.008100626945495605	5.9740322265625	0		
0.04636191940307617	-4.7618299722671507E-4	0		0.6148851318359375	-2.696783203125	0		-0.8787509765625	0.25315362548828124	0		-0.2241280517578125	-3.13459814453125	0		1.819316162109375	-0.9045658569335937	0		3.2073828125	0.1026559066772461	0		4.5598818359375	0.25033193969726564	0		6.00222705078125	0.38758889770507815	0		-0.008365894317626953	5.97413134765625	0		
-0.03677867889404297	-0.0020689051151275635	0		0.5878861694335937	-2.693247802734375	0		-0.8739391479492188	0.24815574645996094	0		-0.232994384765625	-3.1233642578125	0		1.863303955078125	-0.9001255493164062	0		3.215260498046875	0.10169212341308594	0		4.56574072265625	0.24842689514160157	0		6.01111474609375	0.3876652221679687	0		0.12377260589599609	5.99614599609375	0		
0.046195133209228516	-2.820180058479309E-4	0		0.5899066772460938	-2.691173583984375	0		-0.8740071411132813	0.248233154296875	0		-0.28291180419921874	-3.117488037109375	0		1.819814697265625	-0.8643065795898438	0		3.2404755859375	0.1194534683227539	0		4.5656728515625	0.2486103057861328	0		6.002044921875	0.3880184631347656	0		0.006402462005615234	5.9850859375	0		
-0.033819892883300784	0.0010658290386199951	0		0.5939927978515624	-2.68713720703125	0		-0.8748948974609375	0.2573211975097656	0		-0.20988941955566406	-3.118551513671875	0		1.842714599609375	-0.8065375366210937	0		3.236228759765625	0.10566585540771484	0		4.587625	0.2474362335205078	0		6.00613818359375	0.3961522216796875	0		-0.008901674270629883	5.97441259765625	0		
0.046179954528808596	-1.0886699706315994E-4	0		0.58215576171875	-2.67985791015625	0		-0.8789515380859375	0.25345329284667967	0		-0.25360588073730467	-3.103782958984375	0		1.8159915771484374	-0.79000439453125	0		3.275499267578125	0.12218388366699219	0		4.587630859375	0.24758993530273438	0		6.00614208984375	0.3963279724121094	0		-0.043074874877929686	5.969029296875	0		
-0.0067746458053588865	7.973480224609375E-4	0		0.609176513671875	-2.683200439453125	0		-0.8848521728515625	0.25761019897460935	0		-0.23043824768066407	-3.098073974609375	0		1.860128662109375	-0.7845999755859375	0		3.270348876953125	0.11037716674804687	0		4.59664990234375	0.24657795715332032	0		6.00617626953125	0.3964742431640625	0		-0.010002181053161622	5.975583984375	0		
0.04321573638916015	-0.003922997951507568	0		0.582307373046875	-2.679708984375	0		-0.884794921875	0.25766677856445314	0		-0.29622085571289064	-3.08897802734375	0		1.8364951171875	-0.7651475830078125	0		3.265501953125	0.11654425811767578	0		4.59445654296875	0.23071116638183595	0		5.9982333984375	0.39671075439453124	0		-0.02790944480895996	5.98092919921875	0		
-0.03364495849609375	0.0013359709978103638	0		0.595303466796875	-2.684858642578125	0		-0.8787921752929687	0.2536218719482422	0		-0.2241679229736328	-3.091056396484375	0		1.8518609619140625	-0.7463273315429687	0		3.296423828125	0.10712184906005859	0		4.59175830078125	0.24582353210449218	0		6.0072978515625	0.3966414794921875	0		0.007195938110351563	5.98443115234375	0		
0.003269277095794678	-0.008204632759094239	0		0.589564453125	-2.671728271484375	0		-0.8746696166992187	0.257598388671875	0		-0.2828538818359375	-3.074093994140625	0		1.859452392578125	-0.7124051513671875	0		3.30085986328125	0.13109034729003907	0		4.6038173828125	0.24566778564453126	0		6.007609375	0.4126700744628906	0		0.007263854026794434	5.9844697265625	0		
-0.006549977779388428	9.760040044784545E-4	0		0.5599669189453125	-2.6472392578125	0		-0.8895494384765625	0.26286328125	0		-0.22782524108886718	-3.073930419921875	0		1.8470528564453126	-0.6761920166015625	0		3.290805908203125	0.12525284576416015	0		4.6114951171875	0.22254203796386718	0		6.00639892578125	0.3966761779785156	0		-0.04289073181152344	5.97028125	0		
-0.03354230880737305	0.0014111859798431397	0		0.5599429931640625	-2.64723388671875	0		-0.8895422973632813	0.26288394165039064	0		-0.2356486053466797	-3.06079296875	0		1.8592840576171874	-0.661390869140625	0		3.2908115234375	0.1252289047241211	0		4.6066279296875	0.23058151245117187	0		6.00228271484375	0.3886870422363281	0		-0.008748376846313476	5.97475830078125	0		
-0.006584578990936279	9.851670265197754E-4	0		0.5868140869140624	-2.65066845703125	0		-0.8895773315429687	0.2628950500488281	0		-0.2326707305908203	-3.056839111328125	0		1.8665643310546876	-0.6405333862304687	0		3.3145673828125	0.11180205535888672	0		4.6073564453125	0.21549676513671875	0		6.00637451171875	0.396531494140625	0		-0.009682373046875	5.97577197265625	0		
-0.036715057373046874	-0.0015575690269470214	0		0.5078450012207031	-2.639452880859375	0		-0.8896594848632813	0.2628962707519531	0		-0.26066937255859374	-3.04741064453125	0		1.870968505859375	-0.6086502075195312	0		3.304876953125	0.1368795166015625	0		4.6213818359375	0.22217483520507814	0		6.007294921875	0.3963890075683594	0		-0.009658487319946289	5.9757568359375	0		
